<svg width="160" height="32" viewBox="0 0 160 32" fill="none" xmlns="http://www.w3.org/2000/svg">
<path d="M14.1651 4.23147C14.8614 2.62571 17.1386 2.6257 17.8349 4.23146L19.8752 8.93645C20.165 9.60476 20.7952 10.0627 21.5203 10.1318L26.6255 10.6182C28.3679 10.7842 29.0716 12.95 27.7596 14.1084L23.9153 17.5027C23.3693 17.9849 23.1285 18.7258 23.2869 19.4368L24.4018 24.4424C24.7824 26.1508 22.9401 27.4893 21.4329 26.5995L17.0168 23.9923C16.3895 23.622 15.6105 23.622 14.9832 23.9923L10.5671 26.5995C9.05993 27.4893 7.21764 26.1508 7.59816 24.4424L8.71308 19.4368C8.87145 18.7258 8.63072 17.9849 8.08468 17.5027L4.24044 14.1084C2.92845 12.95 3.63214 10.7842 5.37448 10.6182L10.4797 10.1318C11.2048 10.0627 11.835 9.60476 12.1248 8.93645L14.1651 4.23147Z" fill="#FFDC3B"/>
<path d="M78.1651 4.23147C78.8614 2.62571 81.1386 2.6257 81.8349 4.23146L83.8752 8.93645C84.165 9.60476 84.7952 10.0627 85.5203 10.1318L90.6255 10.6182C92.3679 10.7842 93.0716 12.95 91.7596 14.1084L87.9153 17.5027C87.3693 17.9849 87.1285 18.7258 87.2869 19.4368L88.4018 24.4424C88.7824 26.1508 86.9401 27.4893 85.4329 26.5995L81.0168 23.9923C80.3895 23.622 79.6105 23.622 78.9832 23.9923L74.5671 26.5995C73.0599 27.4893 71.2176 26.1508 71.5982 24.4424L72.7131 19.4368C72.8715 18.7258 72.6307 17.9849 72.0847 17.5027L68.2404 14.1084C66.9284 12.95 67.6321 10.7842 69.3745 10.6182L74.4797 10.1318C75.2048 10.0627 75.835 9.60476 76.1248 8.93645L78.1651 4.23147Z" fill="#FFDC3B"/>
<path d="M46.1651 4.23147C46.8614 2.62571 49.1386 2.6257 49.8349 4.23146L51.8752 8.93645C52.165 9.60476 52.7952 10.0627 53.5203 10.1318L58.6255 10.6182C60.3679 10.7842 61.0716 12.95 59.7596 14.1084L55.9153 17.5027C55.3693 17.9849 55.1285 18.7258 55.2869 19.4368L56.4018 24.4424C56.7824 26.1508 54.9401 27.4893 53.4329 26.5995L49.0168 23.9923C48.3895 23.622 47.6105 23.622 46.9832 23.9923L42.5671 26.5995C41.0599 27.4893 39.2176 26.1508 39.5982 24.4424L40.7131 19.4368C40.8715 18.7258 40.6307 17.9849 40.0847 17.5027L36.2404 14.1084C34.9284 12.95 35.6321 10.7842 37.3745 10.6182L42.4797 10.1318C43.2048 10.0627 43.835 9.60476 44.1248 8.93645L46.1651 4.23147Z" fill="#FFDC3B"/>
<path d="M110.165 4.23147C110.861 2.62571 113.139 2.6257 113.835 4.23146L115.875 8.93645C116.165 9.60476 116.795 10.0627 117.52 10.1318L122.626 10.6182C124.368 10.7842 125.072 12.95 123.76 14.1084L119.915 17.5027C119.369 17.9849 119.129 18.7258 119.287 19.4368L120.402 24.4424C120.782 26.1508 118.94 27.4893 117.433 26.5995L113.017 23.9923C112.39 23.622 111.61 23.622 110.983 23.9923L106.567 26.5995C105.06 27.4893 103.218 26.1508 103.598 24.4424L104.713 19.4368C104.871 18.7258 104.631 17.9849 104.085 17.5027L100.24 14.1084C98.9284 12.95 99.6321 10.7842 101.374 10.6182L106.48 10.1318C107.205 10.0627 107.835 9.60476 108.125 8.93645L110.165 4.23147Z" fill="#FFDC3B"/>
<path d="M142.165 4.23147C142.861 2.62571 145.139 2.6257 145.835 4.23146L147.875 8.93645C148.165 9.60476 148.795 10.0627 149.52 10.1318L154.626 10.6182C156.368 10.7842 157.072 12.95 155.76 14.1084L151.915 17.5027C151.369 17.9849 151.129 18.7258 151.287 19.4368L152.402 24.4424C152.782 26.1508 150.94 27.4893 149.433 26.5995L145.017 23.9923C144.39 23.622 143.61 23.622 142.983 23.9923L138.567 26.5995C137.06 27.4893 135.218 26.1508 135.598 24.4424L136.713 19.4368C136.871 18.7258 136.631 17.9849 136.085 17.5027L132.24 14.1084C130.928 12.95 131.632 10.7842 133.374 10.6182L138.48 10.1318C139.205 10.0627 139.835 9.60476 140.125 8.93645L142.165 4.23147Z" fill="#FFDC3B"/>
</svg>
